<?xml version="1.0" encoding="utf-8"?>
<!-- Generator: Adobe Illustrator 24.1.0, SVG Export Plug-In . SVG Version: 6.00 Build 0)  -->
<svg version="1.1" xmlns="http://www.w3.org/2000/svg" xmlns:xlink="http://www.w3.org/1999/xlink" x="0px" y="0px"
	 viewBox="0 0 1200 628" style="enable-background:new 0 0 1200 628;" xml:space="preserve">
<style type="text/css">
	.st0{clip-path:url(#SVGID_2_);fill:url(#SVGID_3_);}
	.st1{opacity:0.34;clip-path:url(#SVGID_2_);fill:url(#SVGID_4_);}
	.st2{opacity:0.19;clip-path:url(#SVGID_2_);fill:url(#SVGID_5_);}
	.st3{opacity:0.37;clip-path:url(#SVGID_2_);fill:url(#SVGID_6_);}
	.st4{clip-path:url(#SVGID_2_);fill:#7E93A8;}
	.st5{clip-path:url(#SVGID_2_);}
	.st6{fill:#D01A30;}
	.st7{fill:#FFFFFF;}
	.st8{opacity:0.2;fill:#231F20;}
	.st9{fill:#DFDBDA;}
	.st10{fill:#7E93A8;}
	.st11{fill:#EEAF35;}
	.st12{fill:#FFDB49;}
	.st13{fill:#0AB563;}
	.st14{fill:#09904F;}
	.st15{opacity:0.1;fill:#231F20;}
	.st16{fill:#A71425;}
	.st17{fill:#AA9ACA;}
	.st18{fill:#BDC7D1;}
	.st19{fill:#637382;}
	.st20{fill:#F9F7F4;}
	.st21{fill:#0C2133;}
	.st22{fill:#D5BFB8;}
	.st23{fill:#938585;}
	.st24{fill:none;stroke:#B8A392;stroke-width:3;stroke-miterlimit:10;}
	.st25{fill:#002851;}
	.st26{fill:#085BB9;}
	.st27{fill:#555CA5;}
	.st28{fill:#F4EEDB;}
	.st29{fill:#DBD8C6;}
</style>
<g id="fondo">
</g>
<g id="Capa_1">
	<g>
		<defs>
			<rect id="SVGID_1_" x="-0.2" y="-0.1" width="1200.1" height="628"/>
		</defs>
		<clipPath id="SVGID_2_">
			<use xlink:href="#SVGID_1_"  style="overflow:visible;"/>
		</clipPath>
		<linearGradient id="SVGID_3_" gradientUnits="userSpaceOnUse" x1="598.9058" y1="539.3821" x2="598.9058" y2="-1.2125">
			<stop  offset="0" style="stop-color:#FCEE9B"/>
			<stop  offset="1" style="stop-color:#A2FFFF"/>
		</linearGradient>
		<rect x="-4.1" y="-1.2" class="st0" width="1206" height="540.6"/>
		<linearGradient id="SVGID_4_" gradientUnits="userSpaceOnUse" x1="403.6128" y1="539.5883" x2="953.4988" y2="-196.4459">
			<stop  offset="0" style="stop-color:#65DDD1"/>
			<stop  offset="1" style="stop-color:#55CAD1"/>
		</linearGradient>
		<rect x="-1.6" y="-0.5" class="st1" width="1202.5" height="555.3"/>
		<linearGradient id="SVGID_5_" gradientUnits="userSpaceOnUse" x1="122.2911" y1="-100.1331" x2="293.2867" y2="261.4006">
			<stop  offset="0" style="stop-color:#65DDD1"/>
			<stop  offset="1" style="stop-color:#55CAD1"/>
		</linearGradient>
		<path class="st2" d="M-24.4,537.7c0,0,181.3,74.5,228.1,30.4c23.3-22,240.5-85.3,270.3-128.4c49-71,16.9-168.9-30.4-251.7
			C408.3,126.3,460.5-6.3,614.2-8H-26.7L-24.4,537.7z"/>
		<linearGradient id="SVGID_6_" gradientUnits="userSpaceOnUse" x1="1209.8217" y1="105.0731" x2="945.8298" y2="436.1104">
			<stop  offset="0" style="stop-color:#65DDD1"/>
			<stop  offset="1" style="stop-color:#55CAD1"/>
		</linearGradient>
		<path class="st3" d="M670,500.5c0,0-48.1-100.5,97.1-208.6c69.8-51.9,112.8-94,130.9-173.2c21.1-92.1,88-119.9,88-119.9l214.4-1.7
			l1.5,527.1L670,500.5z"/>
		<rect x="-7.5" y="522.5" class="st4" width="1213" height="109.8"/>
		<g class="st5">
			<path class="st6" d="M1156.1,486c0,0-233.3,0-250.4,0c-16.5-18.1-18.3-41.4,0-55c17.6,0,250.4,0,250.4,0v6.6l-7.9,0v41.1h7.9V486
				z"/>
			<path class="st7" d="M1148.2,478.6c0,0-221.7,0-237.8,0c-11.5-9.1-11.8-32.7,0-41.1c16.5,0,237.8,0,237.8,0V478.6z"/>
			<path class="st8" d="M916.4,445.2c14.9,0,196.2,0,231.8,0v-7.7c0,0-221.3,0-237.8,0c-11.8,8.3-11.5,32,0,41.1c0.1,0,0.1,0,0.2,0
				C905.4,467.7,907.2,451.7,916.4,445.2z"/>
			<g>
				<path class="st9" d="M919.8,453.3c7.5-0.2,15-0.3,22.5-0.5l22.5-0.3c15-0.2,29.9-0.1,44.9-0.2c15,0.1,29.9,0.1,44.9,0.2
					l22.5,0.3c7.5,0.2,15,0.3,22.5,0.5c-7.5,0.2-15,0.3-22.5,0.5l-22.5,0.3c-15,0.2-29.9,0.2-44.9,0.2c-15-0.1-29.9-0.1-44.9-0.2
					l-22.5-0.3C934.7,453.6,927.2,453.6,919.8,453.3z"/>
			</g>
			<g>
				<path class="st9" d="M945.9,465.7c7.5-0.2,15-0.3,22.5-0.5l22.5-0.3c15-0.2,29.9-0.1,44.9-0.2c15,0.1,29.9,0.1,44.9,0.2
					l22.5,0.3c7.5,0.2,15,0.3,22.5,0.5c-7.5,0.2-15,0.3-22.5,0.5l-22.5,0.3c-15,0.2-29.9,0.2-44.9,0.2c-15-0.1-29.9-0.1-44.9-0.2
					l-22.5-0.3C960.9,466.1,953.4,466,945.9,465.7z"/>
			</g>
			<path class="st10" d="M908.7,376.1c0,0,233.3,0,250.4,0c16.5-18.1,18.3-41.4,0-55c-17.6,0-250.4,0-250.4,0v6.6l7.9,0v41.1h-7.9
				V376.1z"/>
			<path class="st7" d="M916.6,368.8c0,0,221.7,0,237.8,0c11.5-9.1,11.8-32.7,0-41.1c-16.5,0-237.8,0-237.8,0V368.8z"/>
			<path class="st8" d="M1148.4,335.4c-14.9,0-196.2,0-231.8,0v-7.7c0,0,221.3,0,237.8,0c11.8,8.3,11.5,32,0,41.1
				c-0.1,0-0.1,0-0.2,0C1159.4,357.8,1157.6,341.9,1148.4,335.4z"/>
			<g>
				<path class="st9" d="M1145,343.5c-7.5,0.2-15,0.3-22.5,0.5l-22.5,0.3c-15,0.2-29.9,0.1-44.9,0.2c-15-0.1-29.9-0.1-44.9-0.2
					l-22.5-0.3c-7.5-0.2-15-0.3-22.5-0.5c7.5-0.2,15-0.3,22.5-0.5l22.5-0.3c15-0.2,29.9-0.2,44.9-0.2c15,0.1,29.9,0.1,44.9,0.2
					l22.5,0.3C1130.1,343.2,1137.5,343.3,1145,343.5z"/>
			</g>
			<g>
				<path class="st9" d="M1118.9,355.9c-7.5,0.2-15,0.3-22.5,0.5l-22.5,0.3c-15,0.2-29.9,0.1-44.9,0.2c-15-0.1-29.9-0.1-44.9-0.2
					l-22.5-0.3c-7.5-0.2-15-0.3-22.5-0.5c7.5-0.2,15-0.3,22.5-0.5l22.5-0.3c15-0.2,29.9-0.2,44.9-0.2c15,0.1,29.9,0.1,44.9,0.2
					l22.5,0.3C1103.9,355.6,1111.4,355.7,1118.9,355.9z"/>
			</g>
			<path class="st11" d="M1146.3,542.3c0,0-233.3,0-250.4,0c-16.5-18.1-18.3-41.4,0-55c17.6,0,250.4,0,250.4,0v6.6l-7.9,0v41.1h7.9
				V542.3z"/>
			<path class="st12" d="M1176.2,542.3c0,0-233.3,0-250.4,0c-16.5-18.5-18.3-42.3,0-56.2c17.6,0,250.4,0,250.4,0v6.7l-7.9,0v42h7.9
				V542.3z"/>
			<path class="st7" d="M1168.3,534.9c0,0-221.7,0-237.8,0c-11.5-9.1-11.8-32.7,0-41.1c16.5,0,237.8,0,237.8,0V534.9z"/>
			<path class="st8" d="M936.5,501.5c14.9,0,196.2,0,231.8,0v-7.7c0,0-221.3,0-237.8,0c-11.8,8.3-11.5,32,0,41.1c0.1,0,0.1,0,0.2,0
				C925.5,523.9,927.3,508,936.5,501.5z"/>
			<g>
				<path class="st9" d="M939.9,509.6c7.5-0.2,15-0.3,22.5-0.5l22.5-0.3c15-0.2,29.9-0.1,44.9-0.2c15,0.1,29.9,0.1,44.9,0.2
					l22.5,0.3c7.5,0.2,15,0.3,22.5,0.5c-7.5,0.2-15,0.3-22.5,0.5l-22.5,0.3c-15,0.2-29.9,0.2-44.9,0.2c-15-0.1-29.9-0.1-44.9-0.2
					l-22.5-0.3C954.8,509.9,947.4,509.8,939.9,509.6z"/>
			</g>
			<g>
				<path class="st9" d="M966,522c7.5-0.2,15-0.3,22.5-0.5l22.5-0.3c15-0.2,29.9-0.1,44.9-0.2c15,0.1,29.9,0.1,44.9,0.2l22.5,0.3
					c7.5,0.2,15,0.3,22.5,0.5c-7.5,0.2-15,0.3-22.5,0.5l-22.5,0.3c-15,0.2-29.9,0.2-44.9,0.2c-15-0.1-29.9-0.1-44.9-0.2l-22.5-0.3
					C981,522.3,973.5,522.2,966,522z"/>
			</g>
			<path class="st13" d="M1146.3,321.2c0,0-233.3,0-250.4,0c-16.5-18.2-18.3-41.6,0-55.3c17.6,0,250.4,0,250.4,0v6.6l-7.9,0v41.3
				h7.9V321.2z"/>
			<path class="st14" d="M1176.2,321.2c0,0-233.3,0-250.4,0c-16.5-18.2-18.3-41.6,0-55.3c17.6,0,250.4,0,250.4,0v6.6l-7.9,0v41.3
				h7.9V321.2z"/>
			<path class="st7" d="M1168.3,313.5c0,0-221.7,0-237.8,0c-11.5-9.1-11.8-32.7,0-41.1c16.5,0,237.8,0,237.8,0V313.5z"/>
			<path class="st8" d="M936.5,280.1c14.9,0,196.2,0,231.8,0v-7.7c0,0-221.3,0-237.8,0c-11.8,8.3-11.5,32,0,41.1c0.1,0,0.1,0,0.2,0
				C925.5,302.6,927.3,286.7,936.5,280.1z"/>
			<g>
				<path class="st9" d="M939.9,288.2c7.5-0.2,15-0.3,22.5-0.5l22.5-0.3c15-0.2,29.9-0.1,44.9-0.2c15,0.1,29.9,0.1,44.9,0.2
					l22.5,0.3c7.5,0.2,15,0.3,22.5,0.5c-7.5,0.2-15,0.3-22.5,0.5l-22.5,0.3c-15,0.2-29.9,0.2-44.9,0.2c-15-0.1-29.9-0.1-44.9-0.2
					l-22.5-0.3C954.8,288.6,947.4,288.5,939.9,288.2z"/>
			</g>
			<g>
				<path class="st9" d="M966,300.7c7.5-0.2,15-0.3,22.5-0.5l22.5-0.3c15-0.2,29.9-0.1,44.9-0.2c15,0.1,29.9,0.1,44.9,0.2l22.5,0.3
					c7.5,0.2,15,0.3,22.5,0.5c-7.5,0.2-15,0.3-22.5,0.5l-22.5,0.3c-15,0.2-29.9,0.2-44.9,0.2c-15-0.1-29.9-0.1-44.9-0.2l-22.5-0.3
					C981,301,973.5,300.9,966,300.7z"/>
			</g>
			<path class="st12" d="M1169.9,431.3H899.4c-1.1,0-2-0.9-2-2v-51.7c0-1.1,0.9-2,2-2h270.4c1.1,0,2,0.9,2,2v51.7
				C1171.9,430.4,1171,431.3,1169.9,431.3z"/>
			<path class="st15" d="M901.9,388.3c0-1.5,1.2-2.7,2.7-2.7h267.3v-7.3c0-1.5-1.2-2.7-2.7-2.7H900.1c-1.5,0-2.7,1.2-2.7,2.7v50.3
				c0,1.5,1.2,2.7,2.7,2.7h1.8V388.3z"/>
			<rect x="933.2" y="375.6" class="st11" width="32.9" height="55.4"/>
			<rect x="977.2" y="383.1" class="st11" width="21.3" height="40.3"/>
			<path class="st6" d="M1169.9,265.9H899.4c-1.1,0-2-0.9-2-2V212c0-1.1,0.9-2,2-2h270.4c1.1,0,2,0.9,2,2v51.9
				C1171.9,265,1171,265.9,1169.9,265.9z"/>
			<path class="st15" d="M901.9,222.7c0-1.5,1.2-2.7,2.7-2.7h267.3v-7.3c0-1.5-1.2-2.7-2.7-2.7H900.1c-1.5,0-2.7,1.2-2.7,2.7v50.6
				c0,1.5,1.2,2.7,2.7,2.7h1.8V222.7z"/>
			<rect x="933.2" y="210" class="st16" width="32.9" height="55.6"/>
			<rect x="977.2" y="217.5" class="st16" width="21.3" height="40.3"/>
		</g>
		<g class="st5">
			<g>
				<path class="st17" d="M290.4,490.5c0,0-241.2,0-258.9,0c-17.1-19.1-19-43.5,0-57.9c18.2,0,258.9,0,258.9,0v6.9l-8.2,0v43.2h8.2
					V490.5z"/>
				<path class="st7" d="M282.2,481.9c0,0-229.2,0-245.9,0c-11.8-9.4-12.2-33.8,0-42.5c17.1,0,245.9,0,245.9,0V481.9z"/>
				<path class="st8" d="M42.5,447.4c15.4,0,202.9,0,239.6,0v-7.9c0,0-228.8,0-245.9,0c-12.2,8.6-11.8,33.1,0,42.5
					c0.1,0,0.1,0,0.2,0C31.1,470.6,33,454.1,42.5,447.4z"/>
				<g>
					<path class="st9" d="M46,455.7c7.7-0.2,15.5-0.3,23.2-0.5l23.2-0.3c15.5-0.2,31-0.1,46.5-0.2c15.5,0.1,31,0.1,46.5,0.2
						l23.2,0.3c7.7,0.2,15.5,0.3,23.2,0.5c-7.7,0.2-15.5,0.3-23.2,0.5l-23.2,0.3c-15.5,0.2-31,0.2-46.5,0.2
						c-15.5-0.1-31-0.1-46.5-0.2l-23.2-0.3C61.5,456.1,53.7,456,46,455.7z"/>
				</g>
				<g>
					<path class="st9" d="M73,468.6c7.7-0.2,15.5-0.3,23.2-0.5l23.2-0.3c15.5-0.2,31-0.1,46.5-0.2c15.5,0.1,31,0.1,46.5,0.2
						l23.2,0.3c7.7,0.2,15.5,0.3,23.2,0.5c-7.7,0.2-15.5,0.3-23.2,0.5l-23.2,0.3c-15.5,0.2-31,0.2-46.5,0.2
						c-15.5-0.1-31-0.1-46.5-0.2l-23.2-0.3C88.5,468.9,80.8,468.8,73,468.6z"/>
				</g>
			</g>
			<g>
				<path class="st6" d="M34.5,375.9c0,0,241.2,0,258.9,0c17.1-18.8,19-42.8,0-56.9c-18.2,0-258.9,0-258.9,0v6.8l8.2,0v42.5h-8.2
					V375.9z"/>
				<path class="st7" d="M42.3,368.3c0,0,229.6,0,246.3,0c11.9-9.4,12.2-33.8,0-42.5c-17.1,0-246.3,0-246.3,0V368.3z"/>
				<path class="st8" d="M282.4,333.8c-15.4,0-203.2,0-240,0v-7.9c0,0,229.1,0,246.3,0c12.2,8.6,11.9,33.1,0,42.5
					c-0.1,0-0.1,0-0.2,0C293.8,357,291.9,340.5,282.4,333.8z"/>
				<g>
					<path class="st9" d="M278.9,342.2c-7.7,0.2-15.5,0.3-23.2,0.5l-23.2,0.3c-15.5,0.2-31,0.1-46.5,0.2c-15.5-0.1-31-0.1-46.5-0.2
						l-23.2-0.3c-7.7-0.2-15.5-0.3-23.2-0.5c7.7-0.2,15.5-0.3,23.2-0.5l23.2-0.3c15.5-0.2,31-0.2,46.5-0.2c15.5,0.1,31,0.1,46.5,0.2
						l23.2,0.3C263.4,341.8,271.2,341.9,278.9,342.2z"/>
				</g>
			</g>
			<g>
				<path class="st9" d="M251.9,355c-7.7,0.2-15.5,0.3-23.2,0.5l-23.2,0.3c-15.5,0.2-31,0.1-46.5,0.2c-15.5-0.1-31-0.1-46.5-0.2
					l-23.2-0.3c-7.7-0.2-15.5-0.3-23.2-0.5c7.7-0.2,15.5-0.3,23.2-0.5l23.2-0.3c15.5-0.2,31-0.2,46.5-0.2c15.5,0.1,31,0.1,46.5,0.2
					l23.2,0.3C236.4,354.7,244.1,354.8,251.9,355z"/>
			</g>
			<g>
				<path class="st14" d="M280.2,432.6c0,0-241.2,0-258.9,0c-17.1-18.8-19-42.8,0-56.9c18.2,0,258.9,0,258.9,0v6.8l-8.2,0V425h8.2
					V432.6z"/>
				<path class="st13" d="M311.2,432.6c0,0-241.2,0-258.9,0c-17.1-18.8-19-42.8,0-56.9c18.2,0,258.9,0,258.9,0v6.8l-8.2,0V425h8.2
					V432.6z"/>
				<path class="st7" d="M303,425c0,0-229.2,0-245.9,0c-11.8-9.4-12.2-33.8,0-42.5c17.1,0,245.9,0,245.9,0V425z"/>
				<path class="st8" d="M63.3,390.5c15.4,0,202.9,0,239.6,0v-7.9c0,0-228.8,0-245.9,0c-12.2,8.6-11.8,33.1,0,42.5
					c0.1,0,0.1,0,0.2,0C51.9,413.7,53.8,397.2,63.3,390.5z"/>
				<g>
					<path class="st9" d="M66.8,398.8c7.7-0.2,15.5-0.3,23.2-0.5l23.2-0.3c15.5-0.2,31-0.1,46.5-0.2c15.5,0.1,31,0.1,46.5,0.2
						l23.2,0.3c7.7,0.2,15.5,0.3,23.2,0.5c-7.7,0.2-15.5,0.3-23.2,0.5l-23.2,0.3c-15.5,0.2-31,0.2-46.5,0.2
						c-15.5-0.1-31-0.1-46.5-0.2L90,399.3C82.3,399.2,74.5,399.1,66.8,398.8z"/>
				</g>
				<g>
					<path class="st9" d="M93.8,411.7c7.7-0.2,15.5-0.3,23.2-0.5l23.2-0.3c15.5-0.2,31-0.1,46.5-0.2c15.5,0.1,31,0.1,46.5,0.2
						l23.2,0.3c7.7,0.2,15.5,0.3,23.2,0.5c-7.7,0.2-15.5,0.3-23.2,0.5l-23.2,0.3c-15.5,0.2-31,0.2-46.5,0.2
						c-15.5-0.1-31-0.1-46.5-0.2l-23.2-0.3C109.3,412,101.6,411.9,93.8,411.7z"/>
				</g>
			</g>
			<g>
				<path class="st12" d="M280.2,261.5c0,0-241.2,0-258.9,0c-17.1-18.8-19-42.9,0-57.1c18.2,0,258.9,0,258.9,0v6.8l-8.2,0v42.6h8.2
					V261.5z"/>
				<path class="st11" d="M311.2,261.5c0,0-241.2,0-258.9,0c-17.1-18.8-19-42.9,0-57.1c18.2,0,258.9,0,258.9,0v6.8l-8.2,0v42.6h8.2
					V261.5z"/>
				<path class="st7" d="M303,253.7c0,0-229.2,0-245.9,0c-11.8-9.4-12.2-33.8,0-42.5c17.1,0,245.9,0,245.9,0V253.7z"/>
				<path class="st8" d="M63.3,219.2c15.4,0,202.9,0,239.6,0v-7.9c0,0-228.8,0-245.9,0c-12.2,8.6-11.8,33.1,0,42.5
					c0.1,0,0.1,0,0.2,0C51.9,242.4,53.8,225.9,63.3,219.2z"/>
				<g>
					<path class="st9" d="M66.8,227.6c7.7-0.2,15.5-0.3,23.2-0.5l23.2-0.3c15.5-0.2,31-0.1,46.5-0.2c15.5,0.1,31,0.1,46.5,0.2
						l23.2,0.3c7.7,0.2,15.5,0.3,23.2,0.5c-7.7,0.2-15.5,0.3-23.2,0.5l-23.2,0.3c-15.5,0.2-31,0.2-46.5,0.2
						c-15.5-0.1-31-0.1-46.5-0.2L90,228.1C82.3,227.9,74.5,227.8,66.8,227.6z"/>
				</g>
				<g>
					<path class="st9" d="M93.8,240.4c7.7-0.2,15.5-0.3,23.2-0.5l23.2-0.3c15.5-0.2,31-0.1,46.5-0.2c15.5,0.1,31,0.1,46.5,0.2
						l23.2,0.3c7.7,0.2,15.5,0.3,23.2,0.5c-7.7,0.2-15.5,0.3-23.2,0.5l-23.2,0.3c-15.5,0.2-31,0.2-46.5,0.2
						c-15.5-0.1-31-0.1-46.5-0.2l-23.2-0.3C109.3,240.7,101.6,240.6,93.8,240.4z"/>
				</g>
			</g>
			<g>
				<path class="st13" d="M304.7,548.1H24.9c-1.1,0-2-0.9-2-2v-53.6c0-1.1,0.9-2,2-2h279.8c1.1,0,2,0.9,2,2v53.6
					C306.7,547.2,305.8,548.1,304.7,548.1z"/>
				<path class="st15" d="M27.5,503.6c0-1.5,1.2-2.8,2.8-2.8h276.4v-7.6c0-1.5-1.2-2.8-2.8-2.8H25.6c-1.5,0-2.8,1.2-2.8,2.8v52.1
					c0,1.5,1.2,2.8,2.8,2.8h1.8V503.6z"/>
				<rect x="59.8" y="490.5" class="st14" width="34" height="57.3"/>
				<rect x="105.3" y="498.3" class="st14" width="22" height="41.6"/>
			</g>
			<g>
				<path class="st18" d="M304.7,319.2H24.9c-1.1,0-2-0.9-2-2v-53.6c0-1.1,0.9-2,2-2h279.8c1.1,0,2,0.9,2,2v53.6
					C306.7,318.3,305.8,319.2,304.7,319.2z"/>
				<path class="st15" d="M27.5,274.7c0-1.5,1.2-2.8,2.8-2.8h276.4v-7.6c0-1.5-1.2-2.8-2.8-2.8H25.6c-1.5,0-2.8,1.2-2.8,2.8v52.1
					c0,1.5,1.2,2.8,2.8,2.8h1.8V274.7z"/>
				<rect x="59.8" y="261.6" class="st19" width="34" height="57.6"/>
				<rect x="105.3" y="269.4" class="st19" width="22" height="41.6"/>
			</g>
		</g>
		<g class="st5">
			<g>
				<path class="st20" d="M900.7,499.2c-53.7,15.8-210.4-45.3-273.9,2c-12.6,3.7-30.7,17.5-35.5,12.5c-4.5-4.7,3.4-55.1,3.3-65.1
					c75.7-90.1,178,21.7,276.4,14.6C881.4,475.8,887.5,485.6,900.7,499.2z"/>
				<rect x="627.3" y="515.1" class="st21" width="273.4" height="32.9"/>
				<path class="st22" d="M930.7,556.9c-54.1,15.6-239.9-49.3-301.1-15.1c-26.4,7.6-47.4,13.9-34.2-26.7
					c78.1-116.3,203.4,0,309.6-7.5C911.7,523.5,920,541.8,930.7,556.9z"/>
				<g>
					<path class="st23" d="M618.5,511.8c8.1-8.5,18.5-14.6,29.5-18.8c5.5-2.1,11.2-3.7,16.9-5c5.7-1.3,11.6-2.1,17.5-2.6
						c11.7-1.1,23.6-0.5,35.2,0.9c11.7,1.5,23.2,3.9,34.6,6.8c22.7,6,44.8,13.9,67.3,20.2c5.6,1.6,11.3,3.1,17,4.4
						c5.7,1.3,11.4,2.5,17.2,3.5c5.8,1,11.6,1.7,17.4,2.3c5.8,0.5,11.7,0.7,17.5,0.7c-5.9,0.2-11.7,0.2-17.6-0.1
						c-5.9-0.4-11.7-1-17.5-1.8c-5.8-0.9-11.6-2-17.3-3.2c-5.7-1.3-11.4-2.7-17.1-4.2c-11.3-3-22.5-6.6-33.7-10
						c-11.2-3.5-22.4-6.9-33.7-9.8c-11.3-3-22.7-5.4-34.3-7c-5.8-0.7-11.6-1.3-17.4-1.5c-1.5-0.1-2.9-0.1-4.4-0.1
						c-1.5,0-2.9,0-4.4,0l-4.4,0.1l-4.4,0.3c-5.8,0.4-11.6,1.1-17.3,2.3c-5.7,1.1-11.4,2.6-16.8,4.6c-5.5,2-10.9,4.3-15.9,7.3
						C627.5,504.3,622.8,507.8,618.5,511.8z"/>
				</g>
				<g>
					<path class="st23" d="M625.9,527c4.7-3.3,9.9-5.8,15.2-7.9c5.3-2.1,10.8-3.8,16.4-5.1c11.2-2.6,22.7-4,34.1-4.6
						c2.9-0.2,5.7-0.2,8.6-0.3c2.9,0,5.8,0,8.6,0.1c5.7,0.1,11.5,0.5,17.2,1c11.5,1,22.8,2.6,34.2,4.5c22.6,4,44.9,9.2,67.4,13.4
						c11.2,2.1,22.6,3.9,33.9,5.2c5.7,0.7,11.4,1.2,17.1,1.5c5.7,0.3,11.4,0.5,17.2,0.5c-11.5,0.4-22.9-0.1-34.4-1.1
						c-11.4-1.1-22.8-2.7-34.1-4.7c-11.3-1.9-22.5-4.3-33.8-6.5c-11.2-2.3-22.5-4.5-33.7-6.4c-22.5-4-45.4-6.5-68.2-5.7
						c-11.4,0.4-22.8,1.7-34,4.1c-5.6,1.1-11.1,2.7-16.5,4.7C636,521.5,630.8,523.9,625.9,527z"/>
				</g>
			</g>
			<g>
				<path class="st20" d="M289.9,499.2c53.7,15.8,210.4-45.3,273.9,2c11.8,3.4,26.3,13.9,31.2,9.7c5.3-4.5,0-51.6,0.2-62.3
					c-94.6-90.8-177.2,21.7-275.7,14.6C309.2,475.8,303.2,485.6,289.9,499.2z"/>
				
					<rect x="289.9" y="515.1" transform="matrix(-1 -1.224647e-16 1.224647e-16 -1 853.3129 1063.0068)" class="st21" width="273.4" height="32.9"/>
				<path class="st22" d="M260,556.9c54.1,15.6,239.9-49.3,301.1-15.1c26.4,7.6,47.4,13.9,34.2-26.7c-78.1-116.3-203.4,0-309.6-7.5
					C278.9,523.5,270.7,541.8,260,556.9z"/>
				<g>
					<path class="st23" d="M572.1,511.8c-4.2-4.1-8.9-7.6-13.9-10.6c-5-3-10.4-5.3-15.9-7.3c-5.5-2-11.1-3.5-16.8-4.6
						c-5.7-1.2-11.5-1.9-17.3-2.3l-4.4-0.3l-4.4-0.1c-1.5-0.1-2.9,0-4.4,0c-1.5,0-2.9,0-4.4,0.1c-5.8,0.2-11.6,0.8-17.4,1.5
						c-11.6,1.5-23,4-34.3,7c-11.3,2.9-22.5,6.3-33.7,9.8c-11.2,3.5-22.4,7-33.7,10c-5.7,1.5-11.4,2.9-17.1,4.2
						c-5.7,1.2-11.5,2.3-17.3,3.2c-5.8,0.8-11.7,1.4-17.5,1.8c-5.9,0.3-11.7,0.4-17.6,0.1c5.9,0,11.7-0.2,17.5-0.7
						c5.8-0.5,11.6-1.3,17.4-2.3c5.8-1,11.5-2.1,17.2-3.5c5.7-1.4,11.3-2.8,17-4.4c22.5-6.4,44.6-14.3,67.3-20.2
						c11.4-2.9,22.9-5.4,34.6-6.8c11.7-1.5,23.5-2,35.2-0.9c5.9,0.5,11.7,1.3,17.5,2.6c5.7,1.3,11.4,2.8,16.9,5
						C553.6,497.2,564,503.4,572.1,511.8z"/>
				</g>
				<g>
					<path class="st23" d="M564.7,527c-4.8-3.1-10.1-5.5-15.4-7.4c-5.4-1.9-10.9-3.5-16.5-4.7c-11.2-2.4-22.6-3.7-34-4.1
						c-22.8-0.9-45.7,1.7-68.2,5.7c-11.3,1.9-22.5,4.2-33.7,6.4c-11.2,2.3-22.5,4.6-33.8,6.5c-11.3,1.9-22.7,3.6-34.1,4.7
						c-11.4,1-22.9,1.5-34.4,1.1c5.7,0,11.5-0.2,17.2-0.5c5.7-0.4,11.4-0.8,17.1-1.5c11.4-1.3,22.7-3.1,33.9-5.2
						c22.5-4.2,44.8-9.4,67.4-13.4c11.3-1.9,22.7-3.5,34.2-4.5c5.7-0.5,11.5-0.9,17.2-1c2.9-0.1,5.7-0.1,8.6-0.1
						c2.9,0.1,5.7,0.1,8.6,0.3c11.5,0.6,22.9,2,34.1,4.6c5.6,1.3,11.1,3,16.4,5.1C554.8,521.2,560,523.7,564.7,527z"/>
				</g>
			</g>
			<path class="st21" d="M629.9,541.8l-21.4-21.4c-7.1-7.1-18.6-7.1-25.6,0l-21.4,21.4l34.2,18.6L629.9,541.8z"/>
			<path class="st24" d="M629.5,541.8l-21.4-21.4c-7.1-7.1-18.6-7.1-25.6,0L561,541.8"/>
			<g>
				<g>
					<path class="st25" d="M930.7,551.9c-2.7-0.1-5.4-0.3-8.1-0.4c-7.3-0.4-14.6-0.7-21.9-1.1c-10.8-0.5-21.6-1.1-32.4-1.6
						c-13.2-0.7-26.4-1.3-39.6-2c-14.4-0.7-28.8-1.4-43.2-2.2c-14.6-0.7-29.1-1.5-43.7-2.2c-13.6-0.7-27.2-1.4-40.9-2
						c-11.5-0.6-22.9-1.2-34.4-1.7c-8.2-0.4-16.5-0.8-24.7-1.2c-3.9-0.2-7.8-0.5-11.8-0.6c-0.2,0-0.3,0-0.5,0
						c-2.3-0.1-4.1,1.6-4.8,3.7c-0.3,0.8,0.6-1.3,0.3-0.8c-0.2,0.4-0.3,0.7-0.5,1.1c-0.3,0.5-0.7,1.1-1,1.6c-0.5,0.7,0.9-1.1,0,0
						c-0.3,0.3-0.6,0.7-0.9,1c-0.7,0.8-1.5,1.4-2.3,2.1c-0.8,0.7,0.8-0.6,0.1-0.1c-0.3,0.2-0.5,0.4-0.8,0.5
						c-0.5,0.4-1.1,0.7-1.7,1.1c-0.6,0.3-1.1,0.7-1.7,0.9c-0.3,0.2-0.7,0.3-1,0.5c-0.1,0.1-0.3,0.1-0.5,0.2c-1,0.5,0.7-0.3,0.1,0
						c-1.7,0.6-3.3,1.2-5,1.7c-1,0.3-2.1,0.5-3.1,0.7c-0.6,0.1-1.2,0.2-1.8,0.3c-0.2,0-0.5,0.1-0.7,0.1c-0.5,0.1,0.6-0.1-0.4,0
						c-2.9,0.3-5.8,0.5-8.6,0.5c-2.7,0-5,2.3-5,5c0,2.7,2.3,5,5,5c13.4,0,30-3.2,37.6-15.7c0.6-1,1.1-2,1.5-3.1
						c-1.6,1.2-3.2,2.4-4.8,3.7c2.7,0.1,5.4,0.3,8.1,0.4c7.3,0.4,14.6,0.7,21.9,1.1c10.8,0.5,21.6,1.1,32.4,1.6
						c13.2,0.7,26.4,1.3,39.6,2c14.4,0.7,28.8,1.4,43.2,2.2c14.6,0.7,29.1,1.5,43.7,2.2c13.6,0.7,27.2,1.4,40.9,2
						c11.5,0.6,22.9,1.2,34.4,1.7c8.2,0.4,16.5,0.8,24.7,1.2c3.9,0.2,7.8,0.5,11.8,0.6c0.2,0,0.3,0,0.5,0c2.7,0.1,5-2.4,5-5
						C935.7,554.1,933.4,552,930.7,551.9L930.7,551.9z"/>
				</g>
			</g>
			<g>
				<g>
					<path class="st25" d="M259.9,561.9c2.7-0.1,5.4-0.3,8.1-0.4c7.3-0.4,14.6-0.7,21.9-1.1c10.8-0.5,21.6-1.1,32.4-1.6
						c13.2-0.7,26.4-1.3,39.6-2c14.4-0.7,28.8-1.4,43.2-2.2c14.6-0.7,29.1-1.5,43.7-2.2c13.6-0.7,27.2-1.4,40.9-2
						c11.5-0.6,22.9-1.2,34.4-1.7c8.2-0.4,16.5-0.8,24.7-1.2c3.9-0.2,7.9-0.2,11.8-0.6c0.2,0,0.3,0,0.5,0c-1.6-1.2-3.2-2.4-4.8-3.7
						c3,9,13.1,14.4,21.6,16.7c5.7,1.5,11.6,2.1,17.5,2.1c2.7,0,5-2.3,5-5c0-2.7-2.3-5-5-5c-2.6,0-5.1-0.1-7.7-0.4
						c-0.2,0-0.5-0.1-0.7-0.1c-0.1,0-1.1-0.2-0.5-0.1c0.4,0.1-0.8-0.1-1-0.2c-1.1-0.2-2.2-0.4-3.3-0.6c-1.8-0.4-3.6-0.9-5.3-1.6
						c-0.3-0.1-0.7-0.3-1-0.4c-0.8-0.3,0.8,0.4-0.2-0.1c-0.7-0.3-1.3-0.6-2-1c-1.2-0.6-2.3-1.4-3.3-2.1c-0.9-0.6,0.7,0.6,0.1,0.1
						c-0.2-0.2-0.4-0.4-0.6-0.5c-0.4-0.3-0.8-0.7-1.2-1.1c-0.6-0.6-1.2-1.3-1.8-2c-0.2-0.2,0.8,1.2,0.3,0.4
						c-0.1-0.1-0.2-0.2-0.3-0.4c-0.2-0.3-0.4-0.6-0.5-0.8c-0.3-0.4-0.5-0.9-0.7-1.3c-0.4-0.8,0.6,1.5,0.3,0.6
						c-0.7-2-2.6-3.8-4.8-3.7c-2.7,0.1-5.4,0.3-8.1,0.4c-7.3,0.4-14.6,0.7-21.9,1.1c-10.8,0.5-21.6,1.1-32.4,1.6
						c-13.2,0.7-26.4,1.3-39.6,2c-14.4,0.7-28.8,1.4-43.2,2.2c-14.6,0.7-29.1,1.5-43.7,2.2c-13.6,0.7-27.2,1.4-40.9,2
						c-11.5,0.6-22.9,1.2-34.4,1.7c-8.2,0.4-16.5,0.8-24.7,1.2c-3.9,0.2-7.8,0.3-11.8,0.6c-0.2,0-0.3,0-0.5,0c-2.7,0.1-5,2.2-5,5
						C254.9,559.5,257.2,562,259.9,561.9L259.9,561.9z"/>
				</g>
			</g>
		</g>
		<g class="st5">
			<path class="st7" d="M583.6,293.7c0,0,0.6-1.9,0.4-3.9c-0.1-1.9,0.6-6.7,1.5-8.1c1.5-2.3,4.8-2.6,4.3,1.3
				c-0.4,3.5-2.3,7.3-2.3,7.9s-1,5.5-1,5.5L583.6,293.7z"/>
			<path class="st7" d="M615.4,305.3c-0.3-0.5-0.3-1.1,0-1.6c0.4-0.7,0.8-1.7,1.1-2.8c0.4-1.9,2.7-5.3,3.7-6.6
				c1.8-2.1,4.9-3.7,4.1,1.7c-0.5,3.5-4.4,5.5-4.6,6.1c-0.1,0.3-0.8,1.7-1.4,3.1C617.7,306.4,616.1,306.4,615.4,305.3L615.4,305.3z"
				/>
			<path class="st26" d="M569.4,327.9c-1,4.7,5,9.6,8,9c5.8-1.3,11.4-18.1,11.4-43.7l-5.9-3.1C582.9,290.1,577.9,317.9,569.4,327.9z
				"/>
			<g id="girl_1_">
				<path class="st10" d="M577.2,453.7l-0.2,3.2c-0.1,0.6,0.4,1.1,1,1.1l10.1-0.2c0.9,0,2.1-1.8,0.6-2.7c-1.9-1.1-5-2.9-10.6-2.3
					C577.6,452.8,577.2,453.2,577.2,453.7z"/>
				<path class="st10" d="M605.4,455.5l-0.2,3.2c-0.1,0.6,0.4,1.1,1,1.1l10.1-0.2c0.9,0,2.1-1.8,0.6-2.7c-1.9-1.1-5-2.9-10.6-2.3
					C605.8,454.7,605.4,455.1,605.4,455.5z"/>
				<path class="st7" d="M591.5,302c-1.2-2.1-3.2-4.3-9.9-2c-6.7,2.3-4.1,6.4-2.3,13c0.5,2,1.8,3.1,3.4,3.7
					c-0.4,3.3-2.9,8.7-2.9,8.7h8.8c0.8-2,1.3-6.5,1.5-8.4c1-0.2,1.7-0.4,1.7-0.4C594.6,315.6,592.7,304,591.5,302z"/>
				<path class="st27" d="M572.2,342.9c0,0-2.2-4.2-2.1-8.7c0.1,4.4,2.1,8.3,2.1,8.3s1,6.7,1,13.8
					C573.1,349.4,572.2,342.9,572.2,342.9z"/>
				<path class="st25" d="M613.5,455.2l-13-85.7l-8.6,1.2l0-0.2l-17.3-0.3c-1.2,29.6,2.2,83.8,2.2,83.8l8.1-0.9l3.2-64
					c0-0.3,0.4-0.3,0.5-0.1c8.1,28.3,16.5,67.1,16.5,67.1L613.5,455.2z"/>
				<path class="st26" d="M598.1,332.8c3.2,7.7,4.6,44,4.6,44c-5.3,1-29.6,2.1-29.6,2.1l-0.9-35.9c0,0-9.6-17,6.7-20.6
					c3.6-0.8,11.2,1.6,13.3,2.4C594.2,325.6,596.2,328.2,598.1,332.8z"/>
				<path class="st16" d="M583.3,326.1c13.5-19.8,7.2-26.8,7.2-26.8c-0.7-1.9-13.1-1.5-15.2,4.5c-1.7,4.8-6.6,14-6.6,14
					c-19.5,27-15.9,40.7-15.9,40.7l3.6-0.3c0-1.1,0.1-2.3,0.4-2.9v2.8l13.7-1.1c0.1-2.8,0.5-7.7,0.5-7.7l1.2,7.4l3.7-0.4
					c-0.8-15.4,2.5-23,3.5-24.9c-0.8,8.6,3.3,22.5,3.3,22.5l0.6-0.1l-1.3-7l1.7,6.9l1.7-0.4C581.3,339.5,582.2,330.5,583.3,326.1z"
					/>
			</g>
			<path class="st26" d="M591.9,325.4c-2.9,3.8,0.3,10.9,3.3,11.6c5.7,1.3,13-8.6,24.1-31.2c0.3-0.6,0.2-1.2-0.2-1.7l-2.1-2.8
				c-0.6-0.9-1.9-0.9-2.6-0.1C609.9,306.7,602,320.9,591.9,325.4z"/>
			<path class="st7" d="M587.5,287.9c0,0,3-2.4,3.7-2.2c0.6,0.2-2.3,3.6-2.9,3.8s-1.5-0.4-1.9-0.4
				C586.1,289.3,587.5,287.9,587.5,287.9z"/>
			<path class="st7" d="M618.2,297.5c0,0,0-0.1,0.1-0.1c0.2-0.4,1.1-2.9,0.4-3.8c-0.8-1-1.3,1.6-1.3,1.6s-0.4,3.9-0.4,4.4
				C616.9,300,618,297.9,618.2,297.5z"/>
		</g>
		<g class="st5">
			<polygon class="st7" points="609.4,49.1 600.7,44.5 642.2,44.7 			"/>
			<polygon class="st28" points="609.4,49.1 608.7,57.5 612.4,52.6 642.2,44.7 			"/>
			<polygon class="st29" points="608.7,57.5 614.2,55.6 612.4,52.6 			"/>
			<polygon class="st7" points="612.4,52.6 615.2,64.3 642.2,44.7 			"/>
		</g>
		<g class="st5">
			<polygon class="st7" points="750.7,41.9 740.8,42.6 776.1,20.8 			"/>
			<polygon class="st28" points="750.7,41.9 754.5,49.4 755,43.3 776.1,20.8 			"/>
			<polygon class="st29" points="754.5,49.4 758.1,44.8 755,43.3 			"/>
			<polygon class="st7" points="755,43.3 763.6,51.7 776.1,20.8 			"/>
		</g>
		<g class="st5">
			<polygon class="st7" points="724.5,135 714.9,137.4 738.9,111.1 			"/>
			<polygon class="st28" points="724.5,135 728,142.3 729,135.6 738.9,111.1 			"/>
			<polygon class="st29" points="728,142.3 732.4,136.6 729,135.6 			"/>
			<polygon class="st7" points="729,135.6 741.1,141.2 738.9,111.1 			"/>
		</g>
		<g class="st5">
			<polygon class="st7" points="527.4,115 519,109.9 554.5,108.5 			"/>
			<polygon class="st28" points="527.4,115 524.7,122.6 530.2,118.7 554.5,108.5 			"/>
			<polygon class="st29" points="524.7,122.6 531.8,121.7 530.2,118.7 			"/>
			<polygon class="st7" points="530.2,118.7 534.7,131.1 554.5,108.5 			"/>
		</g>
		<g class="st5">
			<polygon class="st7" points="592.8,171 583,169.3 615.6,155 			"/>
			<polygon class="st28" points="592.8,171 592.9,179.1 596.6,173.4 615.6,155 			"/>
			<polygon class="st29" points="592.9,179.1 599.3,175.6 596.6,173.4 			"/>
			<polygon class="st7" points="596.6,173.4 605.4,183.3 615.6,155 			"/>
		</g>
		<g class="st5">
			<polygon class="st7" points="606.6,240.3 596.7,240.3 626.5,220.8 			"/>
			<polygon class="st28" points="606.6,240.3 608.2,248.3 610.8,242.1 626.5,220.8 			"/>
			<polygon class="st29" points="608.2,248.3 613.8,243.9 610.8,242.1 			"/>
			<polygon class="st7" points="610.8,242.1 621.1,250.5 626.5,220.8 			"/>
		</g>
		<g class="st5">
			<polygon class="st7" points="786.7,175.4 792.6,181.3 782.1,147.8 			"/>
			<polygon class="st28" points="786.7,175.4 780.1,178.1 783.1,173.9 782.1,147.8 			"/>
			<polygon class="st29" points="780.1,178.1 780.3,173.2 783.1,173.9 			"/>
			<polygon class="st7" points="783.1,173.9 773,174.6 782.1,147.8 			"/>
		</g>
		<g class="st5">
			<polygon class="st7" points="705.5,229.3 711.2,237.4 705.8,196.2 			"/>
			<polygon class="st28" points="705.5,229.3 697.2,231.1 701.7,226.8 705.8,196.2 			"/>
			<polygon class="st29" points="697.2,231.1 698.5,225.4 701.7,226.8 			"/>
			<polygon class="st7" points="701.7,226.8 689.7,225.5 705.8,196.2 			"/>
		</g>
		<g class="st5">
			<polygon class="st7" points="654.2,106.3 644.4,104.9 676.7,89.8 			"/>
			<polygon class="st28" points="654.2,106.3 654.6,114.4 658.1,108.6 676.7,89.8 			"/>
			<polygon class="st29" points="654.6,114.4 660.9,110.8 658.1,108.6 			"/>
			<polygon class="st7" points="658.1,108.6 667.1,118.4 676.7,89.8 			"/>
		</g>
		<g class="st5">
			<polygon class="st7" points="821.1,99.9 813.2,104.7 833.2,71.4 			"/>
			<polygon class="st28" points="821.1,99.9 827.6,104.5 825.3,99.2 833.2,71.4 			"/>
			<polygon class="st29" points="827.6,104.5 828.6,99.1 825.3,99.2 			"/>
			<polygon class="st7" points="825.3,99.2 836.1,102.5 833.2,71.4 			"/>
		</g>
	</g>
</g>
</svg>
